<svg version="1.1" id="Layer_1" xmlns="http://www.w3.org/2000/svg" xmlns:xlink="http://www.w3.org/1999/xlink" x="0px" y="0px" viewBox="0 0 1410 255" style="enable-background:new 0 0 1410 255;" xml:space="preserve">
 <style type="text/css">
  .st0{clip-path:url(#SVGID_2_);}
	.st1{fill:#FFFFFF;}
 </style>
 <g id="Logo_Assets_x2F_logo-sm">
  <g>
   <g>
    <defs>
     <rect id="SVGID_1_" width="1408.7" height="255">
     </rect>
    </defs>
    <clipPath id="SVGID_2_">
     <use href="#SVGID_1_" style="overflow:visible;">
     </use>
    </clipPath>
    <g id="Frame" class="st0">
     <g id="Group">
      <g id="Group_2">
       <path id="Vector" class="st1" d="M1388.5,16.3c11.1,0,20.2,8.5,20.2,19.6s-9.1,19.6-20.2,19.6s-20.2-8.5-20.2-19.6
							C1368.9,24.8,1377.4,16.3,1388.5,16.3z M1388.5,18.9c-9.1,0-16.3,7.2-16.3,16.3s7.2,17,16.3,17s16.3-7.2,16.3-16.3
							C1404.8,26.7,1397.6,18.9,1388.5,18.9z M1385.2,47h-3.9V25.4c2,0,3.9-0.7,6.5-0.7c3.3,0,5.9,0.7,7.2,2c1.3,0.7,2,2.6,2,4.6
							c0,2.6-2,4.6-4.6,5.2c2,0.7,3.3,2,3.9,5.2c0.7,3.3,1.3,4.6,1.3,5.2h-3.9c-0.7-0.7-1.3-2.6-1.3-5.9c-0.7-2.6-2-3.9-4.6-3.9
							h-2.6V47z M1385.2,35.2h2.6c3.3,0,5.2-1.3,5.2-3.9c0-2-1.3-3.9-5.2-3.9c-1.3,0-2,0-2.6,0V35.2z">
       </path>
       <path id="Vector_2" class="st1" d="M0,193L45,0h178l-8.5,39.1h-97.8l-7.2,32.6h84.8l-8.5,37.8h-85.4L91.3,152h100.4l-9.1,41.1
							H0V193z">
       </path>
       <path id="Vector_3" class="st1" d="M215.9,79.6c18.3-67.8,66.5-67.2,124.6-65.9c39.8,0.7,101.1,1.3,90,61.3
							c0,0-2.6,17-6.5,35.2h-62L487.2,255h-83.5l-54.1-62.6c0,0-20.9,7.2-53.5,5.9s-93.3,0-91.3-55.4
							C206.1,114.8,215.9,79.6,215.9,79.6z M292.2,70.4c-12.4,33.9-17,65.2-17,65.2c-4.6,22.8,13,31.3,29.3,31.3
							c13.7,0,32.6-7.8,38.5-23.5c12.4-32.6,17-65.9,17-65.9c5.9-36.5-29.3-31.3-29.3-31.3C302.6,44.3,292.2,70.4,292.2,70.4z">
       </path>
       <path id="Vector_4" class="st1" d="M463,21.5h72.4c0,0-23.5,98.5-28,123.3c0,0,0.7,20.2,22.8,20.2c0,0,28.7,4.6,34.6-18.9
							l29.3-124.6h73.7c0,0-28,123.3-32.6,138.9c-4.6,15-29.3,35.9-84.1,38.5c-9.8,0.7-26.1,0-45-2.6l-66.5-75.7
							C439.6,120.7,457.2,41.7,463,21.5z">
       </path>
       <path id="Vector_5" class="st1" d="M695.2,21.5h73.7l-39.8,170.9h-72.4L695.2,21.5z">
       </path>
       <path id="Vector_6" class="st1" d="M831.5,192.4h-73L797,21.5h159.1l-8.5,33.3h-84.1l-7.8,32h71.7l-7.2,32.6h-71.1
							L831.5,192.4z">
       </path>
       <path id="Vector_7" class="st1" d="M931.3,192.4h-50.9L1005,21.5h88.7l17.6,138.9l59.3-52.8L1112,21.5h94.6l28,43.7l45.7-43.7
							h71.7l-93.3,79.6l61.3,91.3h-90.7l-30.7-50.9l-50.9,50.9h-109.6l-3.3-37.2h-77.6L931.3,192.4z M982.8,118h46.3l-5.9-56.1
							L982.8,118z">
       </path>
      </g>
     </g>
    </g>
   </g>
  </g>
 </g>
</svg>
